<svg width="414" height="139" viewBox="0 0 414 139" fill="none" xmlns="http://www.w3.org/2000/svg">
<mask id="mask0" mask-type="alpha" maskUnits="userSpaceOnUse" x="0" y="0" width="414" height="139">
<rect y="0.122009" width="414" height="138.797" fill="#C4C4C4"/>
</mask>
<g mask="url(#mask0)">
<rect width="137.793" height="276.261" transform="matrix(-1 0 0 1 276.936 137.906)" fill="#AB9FF1"/>
<rect width="276.954" height="139.751" transform="matrix(-1 0 0 1 416.08 -0.590515)" fill="#2C9AFF"/>
<path d="M73.6055 0.113406C110.547 0.113405 140.494 30.0605 140.494 67.0021L140.494 72.3682C140.494 109.31 110.547 139.257 73.6055 139.257L68.2393 139.257C31.2977 139.257 1.35065 109.31 1.35065 72.3682L1.35065 0.113409L73.6055 0.113406Z" fill="#FEC246"/>
<path fill-rule="evenodd" clip-rule="evenodd" d="M283.977 0.113403C357.681 0.113403 417.43 59.8624 417.43 133.566V144.272C417.43 217.977 357.681 277.725 283.977 277.725H278.987V139.282H139.818V133.566C139.818 59.8623 199.567 0.113403 273.271 0.113403H283.977Z" fill="#F56748"/>
<path d="M139.715 66.9452C139.715 30.0036 169.662 0.0565186 206.604 0.0565186H211.97C248.912 0.0565186 278.859 30.0036 278.859 66.9452V72.3113C278.859 109.253 248.912 139.2 211.97 139.2H139.715V66.9452Z" fill="#6550DE"/>
</g>
</svg>
