<svg width="897" height="205" viewBox="0 0 897 205" fill="none" xmlns="http://www.w3.org/2000/svg">
<rect width="897" height="205" fill="#404497"/>
<mask id="mask0" mask-type="alpha" maskUnits="userSpaceOnUse" x="0" y="0" width="897" height="205">
<rect width="897" height="205" fill="#404497"/>
</mask>
<g mask="url(#mask0)">
<path d="M-4 204.5C-4 91.5578 87.5578 0 200.5 0H405V204.5C405 317.442 313.442 409 200.5 409H-4V204.5Z" fill="#FEC246"/>
<rect x="405" width="206" height="206" fill="#AB9FF1"/>
<path d="M831 213C831 95.3633 735.637 0 618 0C500.363 0 405 95.3633 405 213C405 330.637 500.363 426 618 426H831V213Z" fill="#6550DE"/>
<path fill-rule="evenodd" clip-rule="evenodd" d="M508.5 1C451.891 1 406 46.8908 406 103.5C406 160.02 451.746 205.855 508.232 206V103.767H611C611 103.678 611 103.589 611 103.5C611 46.8908 565.109 1 508.5 1Z" fill="#2C9AFF"/>
<path d="M922 4.50227e-06C865.115 2.01574e-06 819 46.1147 819 103C819 159.885 865.115 206 922 206C978.885 206 1025 159.885 1025 103L1025 9.00455e-06L922 4.50227e-06Z" fill="#FFCFCF"/>
<path d="M715 206C771.885 206 818 159.885 818 103C818 46.1147 771.885 -5.49912e-07 715 -1.22826e-06C658.115 -1.90661e-06 612 46.1147 612 103L612 206L715 206Z" fill="#F56748"/>
</g>
</svg>
