<svg width="168" height="175" viewBox="0 0 168 175" fill="none" xmlns="http://www.w3.org/2000/svg">
<path d="M83.6603 7.25807C105.408 7.19932 126.321 15.622 141.957 30.7366V7.25769C141.957 3.70784 144.835 0.830215 148.385 0.830215C151.935 0.830215 154.812 3.70784 154.812 7.25769V45.8218C154.813 48.5894 153.041 51.0468 150.415 51.9212L111.851 64.7758C108.479 65.8977 104.836 64.0731 103.714 60.701C102.592 57.3289 104.417 53.6856 107.789 52.5641L136.262 43.0903C109.96 14.4478 65.4181 12.5505 36.7755 38.8528C8.13304 65.1551 6.23572 109.697 32.538 138.339C58.8403 166.982 103.382 168.879 132.025 142.577C149.585 126.452 157.793 102.535 153.835 79.0253C153.212 75.5305 155.54 72.193 159.035 71.5701C162.529 70.9472 165.867 73.2757 166.49 76.7702C166.497 76.8083 166.503 76.8467 166.509 76.8847C167.278 81.4876 167.666 86.1461 167.666 90.8126C167.614 136.937 130.235 174.316 84.1111 174.369C37.9649 174.493 0.454865 137.185 0.3302 91.0389C0.205933 44.8927 37.5137 7.38272 83.6603 7.25807Z" fill="#6550DE"/>
<path d="M59.5424 69.8878C66.0769 69.8878 71.1889 71.8882 74.8785 75.8889C78.568 79.8451 80.4128 85.5573 80.4128 93.0252C80.4128 98.3151 79.4126 102.849 77.4123 106.628C75.4563 110.406 72.6781 113.273 69.0774 115.229C65.4768 117.185 61.3205 118.163 56.6086 118.163C54.1192 118.163 51.741 117.896 49.474 117.363C47.2069 116.785 45.2732 115.985 43.673 114.962L47.6737 107.028C49.9407 108.584 52.8524 109.361 56.4085 109.361C60.3648 109.361 63.4987 108.206 65.8102 105.894C68.1217 103.538 69.3664 100.16 69.5442 95.7591C66.7437 98.5596 62.8763 99.9598 57.9421 99.9598C54.9638 99.9598 52.2522 99.3597 49.8074 98.1595C47.3625 96.9593 45.4288 95.2701 44.0063 93.0919C42.5839 90.8693 41.8726 88.3133 41.8726 85.4239C41.8726 82.3122 42.6505 79.5784 44.2064 77.2224C45.7622 74.8665 47.8737 73.0662 50.5408 71.8215C53.2524 70.5324 56.253 69.8878 59.5424 69.8878ZM60.3426 91.8917C62.6985 91.8917 64.61 91.2472 66.0769 89.958C67.5883 88.6245 68.344 86.9353 68.344 84.8905C68.344 82.8457 67.6105 81.1787 66.1436 79.8896C64.7211 78.6005 62.743 77.9559 60.2092 77.9559C57.8977 77.9559 56.0085 78.5782 54.5415 79.8229C53.1191 81.0676 52.4078 82.7568 52.4078 84.8905C52.4078 87.0242 53.1191 88.7356 54.5415 90.0247C56.0085 91.2694 57.9421 91.8917 60.3426 91.8917ZM105.598 118.163C101.731 118.163 98.2861 117.207 95.2633 115.296C92.2406 113.384 89.8624 110.628 88.1287 107.028C86.4395 103.383 85.5949 99.0485 85.5949 94.0254C85.5949 89.0023 86.4395 84.6904 88.1287 81.0898C89.8624 77.4447 92.2406 74.6664 95.2633 72.755C98.2861 70.8435 101.731 69.8878 105.598 69.8878C109.466 69.8878 112.911 70.8435 115.934 72.755C118.956 74.6664 121.312 77.4447 123.002 81.0898C124.735 84.6904 125.602 89.0023 125.602 94.0254C125.602 99.0485 124.735 103.383 123.002 107.028C121.312 110.628 118.956 113.384 115.934 115.296C112.911 117.207 109.466 118.163 105.598 118.163ZM105.598 109.028C108.443 109.028 110.666 107.806 112.266 105.361C113.911 102.916 114.733 99.1374 114.733 94.0254C114.733 88.9134 113.911 85.135 112.266 82.6901C110.666 80.2452 108.443 79.0228 105.598 79.0228C102.798 79.0228 100.575 80.2452 98.9306 82.6901C97.3304 85.135 96.5302 88.9134 96.5302 94.0254C96.5302 99.1374 97.3304 102.916 98.9306 105.361C100.575 107.806 102.798 109.028 105.598 109.028Z" fill="#6550DE"/>
<circle cx="133.496" cy="73.7649" r="4.30345" stroke="#6550DE" stroke-width="4.14263"/>
</svg>
