<svg width="417" height="1024" viewBox="0 0 417 1024" fill="none" xmlns="http://www.w3.org/2000/svg">
<path d="M0.782227 614.5C0.782227 501.558 92.34 410 205.282 410H409.782V614.5C409.782 727.442 318.224 819 205.282 819H0.782227V614.5Z" fill="#E3DEFF"/>
<rect x="217.308" width="278" height="1024" fill="#404497"/>
<rect x="217.308" y="410" width="204" height="206" fill="#AB9FF1"/>
<rect x="217.308" y="-0.999512" width="204" height="206" fill="#AB9FF1"/>
<path d="M422.28 616L422.28 718.5C422.28 775.109 376.389 821 319.78 821C263.171 821 217.28 775.109 217.28 718.5L217.28 616L422.28 616Z" fill="#F56748"/>
<path d="M423.308 924.069C423.308 867.184 377.193 821.069 320.308 821.069C263.423 821.069 217.308 867.184 217.308 924.069C217.308 980.955 263.423 1027.07 320.308 1027.07H423.308V924.069Z" fill="#FFCFCF"/>
<path d="M423.308 -103C423.308 -159.885 377.193 -206 320.308 -206H115.308C58.4228 -206 12.3081 -159.885 12.3081 -103V102C12.3081 158.886 58.4228 205 115.308 205H423.308V-103Z" fill="#FEC246"/>
<path d="M322.308 410C265.423 410 219.308 456.115 219.308 513C219.308 569.885 265.423 616 322.308 616C379.193 616 425.308 569.885 425.308 513L425.308 410L322.308 410Z" fill="#6550DE"/>
<path fill-rule="evenodd" clip-rule="evenodd" d="M319.808 205C263.199 205 217.308 250.891 217.308 307.5C217.308 364.02 263.054 409.856 319.54 410V307.768H422.308C422.308 307.679 422.308 307.59 422.308 307.5C422.308 250.891 376.417 205 319.808 205Z" fill="#2C9AFF"/>
<path fill-rule="evenodd" clip-rule="evenodd" d="M217.308 921.5C217.308 864.891 171.417 819 114.808 819C58.2882 819 12.4528 864.746 12.3085 921.232L114.541 921.232L114.541 1024C114.63 1024 114.719 1024 114.808 1024C171.417 1024 217.308 978.109 217.308 921.5Z" fill="#2C9AFF"/>
</svg>
