<svg width="34" height="34" viewBox="0 0 34 34" fill="none" xmlns="http://www.w3.org/2000/svg">
<path d="M16.5417 33.0837C25.6775 33.0837 33.0835 25.6776 33.0835 16.5418V16.5418C33.0835 7.40603 25.6775 -3.90301e-06 16.5417 -4.01196e-06V-4.01196e-06C7.40586 -4.1209e-06 -0.000171355 7.40603 -0.000171464 16.5418L-0.000171661 33.0837L16.5417 33.0837Z" fill="#404497"/>
<path d="M14.4219 21.8863L12.4103 18.9807H12.2911H10.1902V21.8863H7.77629V11.456H12.2911C13.215 11.456 14.0146 11.61 14.6901 11.9179C15.3755 12.2258 15.902 12.6629 16.2696 13.2291C16.6371 13.7954 16.8209 14.4659 16.8209 15.2407C16.8209 16.0155 16.6321 16.6861 16.2547 17.2523C15.8871 17.8086 15.3606 18.2357 14.6752 18.5337L17.0146 21.8863H14.4219ZM14.3772 15.2407C14.3772 14.6546 14.1885 14.2076 13.811 13.8997C13.4335 13.5818 12.8822 13.4229 12.157 13.4229H10.1902V17.0586H12.157C12.8822 17.0586 13.4335 16.8996 13.811 16.5818C14.1885 16.2639 14.3772 15.8169 14.3772 15.2407ZM22.1605 22.0651C21.336 22.0651 20.5363 21.9559 19.7615 21.7373C18.9966 21.5088 18.3807 21.2158 17.9139 20.8582L18.7334 19.0403C19.1804 19.3681 19.7118 19.6314 20.3277 19.8301C20.9436 20.0287 21.5595 20.1281 22.1754 20.1281C22.8608 20.1281 23.3674 20.0287 23.6952 19.8301C24.023 19.6214 24.187 19.3483 24.187 19.0105C24.187 18.7622 24.0876 18.5585 23.8889 18.3996C23.7002 18.2307 23.4519 18.0966 23.1439 17.9973C22.8459 17.898 22.4386 17.7887 21.9221 17.6695C21.1274 17.4807 20.4767 17.292 19.9701 17.1033C19.4635 16.9145 19.0264 16.6116 18.6589 16.1943C18.3013 15.7771 18.1225 15.2208 18.1225 14.5255C18.1225 13.9195 18.2864 13.3732 18.6142 12.8864C18.942 12.3898 19.4337 11.9974 20.0893 11.7093C20.7549 11.4212 21.5645 11.2772 22.5181 11.2772C23.1837 11.2772 23.8343 11.3567 24.4701 11.5156C25.1058 11.6745 25.6621 11.903 26.1389 12.201L25.3939 14.0338C24.4303 13.4874 23.4668 13.2142 22.5032 13.2142C21.8277 13.2142 21.3261 13.3235 20.9983 13.5421C20.6804 13.7606 20.5214 14.0487 20.5214 14.4063C20.5214 14.7639 20.7052 15.0321 21.0728 15.2109C21.4502 15.3798 22.0214 15.5487 22.7863 15.7175C23.581 15.9063 24.2317 16.095 24.7383 16.2837C25.2449 16.4725 25.677 16.7705 26.0346 17.1778C26.4022 17.5851 26.5859 18.1364 26.5859 18.8317C26.5859 19.4277 26.4171 19.9741 26.0793 20.4708C25.7515 20.9575 25.2548 21.3449 24.5893 21.633C23.9237 21.9211 23.1141 22.0651 22.1605 22.0651Z" fill="white"/>
</svg>
