<svg width="44" height="43" viewBox="0 0 44 43" fill="none" xmlns="http://www.w3.org/2000/svg">
<circle cx="21.9789" cy="21.7591" r="21.0306" fill="#6550DE"/>
<g clip-path="url(#clip0)">
<path d="M24.8575 9.74714C24.5567 9.59431 24.1956 9.62485 23.9248 9.83883L15.9823 15.739H10.6271C10.1157 15.739 9.72461 16.1364 9.72461 16.6561V26.8666C9.72461 27.3864 10.1157 27.7837 10.6271 27.7837H15.9823L23.8947 33.6839C24.0451 33.8061 24.2257 33.8673 24.4363 33.8673C24.5867 33.8673 24.707 33.8368 24.8574 33.7756C25.1583 33.6228 25.3388 33.317 25.3388 32.9502V10.5725C25.3388 10.2363 25.1583 9.89998 24.8575 9.74714ZM15.3806 25.9495H11.5297V17.5732H15.3806V25.9495ZM23.5337 31.1465L17.1857 26.408V17.1146L23.5337 12.3762V31.1465Z" fill="white"/>
<path d="M28.7684 25.5214C30.3027 24.8488 31.2052 23.4426 31.2052 21.7612C31.2052 20.0799 30.3027 18.6737 28.7684 18.0011C28.3171 17.7871 27.7755 18.0011 27.565 18.4597C27.3544 18.9182 27.565 19.4685 28.0162 19.6825C28.8887 20.0799 29.3701 20.8442 29.3701 21.7919C29.3701 22.7395 28.8887 23.5038 28.0162 23.9012C27.565 24.1152 27.3544 24.6655 27.565 25.124C27.7154 25.4603 28.0463 25.6743 28.3772 25.6743C28.5277 25.6131 28.648 25.5826 28.7684 25.5214Z" fill="white"/>
<path d="M28.8887 14.608C28.4074 14.5163 27.926 14.8219 27.8357 15.3417C27.7455 15.8308 28.0463 16.3199 28.5578 16.4116C31.0548 16.9008 32.86 19.163 32.86 21.7921C32.86 24.4211 31.0548 26.6527 28.5578 27.1725C28.0764 27.2641 27.7455 27.7533 27.8357 28.2424C27.926 28.6704 28.287 28.9761 28.7082 28.9761C28.7684 28.9761 28.8286 28.9761 28.8887 28.9456C32.2282 28.2425 34.635 25.2466 34.635 21.7615C34.635 18.2764 32.2282 15.25 28.8887 14.608Z" fill="white"/>
</g>
<defs>
<clipPath id="clip0">
<rect width="24.9106" height="25.3124" fill="white" transform="translate(9.72461 9.10327)"/>
</clipPath>
</defs>
</svg>
