<svg width="43" height="43" viewBox="0 0 43 43" fill="none" xmlns="http://www.w3.org/2000/svg">
<circle cx="21.8143" cy="21.3275" r="21.0306" fill="#B2B2B2"/>
<g clip-path="url(#clip0)">
<path d="M24.6929 9.3155C24.3921 9.16266 24.0311 9.19321 23.7603 9.40719L15.8178 15.3073H10.4626C9.95118 15.3073 9.56006 15.7047 9.56006 16.2245V26.435C9.56006 26.9547 9.95118 27.3521 10.4626 27.3521H15.8178L23.7302 33.2522C23.8806 33.3745 24.0611 33.4357 24.2717 33.4357C24.4221 33.4357 24.5425 33.4051 24.6929 33.344C24.9937 33.1911 25.1742 32.8854 25.1742 32.5186V10.1409C25.1743 9.80462 24.9938 9.46834 24.6929 9.3155ZM15.2161 25.5179H11.3652V17.1415H15.2161V25.5179ZM23.3692 30.7148L17.0212 25.9764V16.683L23.3692 11.9445V30.7148Z" fill="white"/>
<path d="M28.6038 25.0898C30.1382 24.4172 31.0407 23.0109 31.0407 21.3296C31.0407 19.6483 30.1382 18.242 28.6038 17.5695C28.1525 17.3555 27.611 17.5695 27.4004 18.028C27.1898 18.4866 27.4004 19.0369 27.8517 19.2508C28.7242 19.6483 29.2055 20.4125 29.2055 21.3602C29.2055 22.3079 28.7242 23.0721 27.8517 23.4696C27.4004 23.6836 27.1898 24.2338 27.4004 24.6924C27.5508 25.0287 27.8818 25.2427 28.2127 25.2427C28.3632 25.1815 28.4835 25.1509 28.6038 25.0898Z" fill="white"/>
<path d="M28.7242 14.1763C28.2428 14.0846 27.7615 14.3903 27.6712 14.91C27.5809 15.3991 27.8818 15.8883 28.3932 15.98C30.8903 16.4691 32.6954 18.7313 32.6954 21.3604C32.6954 23.9895 30.8903 26.2211 28.3932 26.7408C27.9119 26.8325 27.5809 27.3217 27.6712 27.8108C27.7614 28.2388 28.1225 28.5445 28.5436 28.5445C28.6038 28.5445 28.664 28.5445 28.7242 28.514C32.0636 27.8109 34.4705 24.815 34.4705 21.3299C34.4705 17.8448 32.0636 14.8183 28.7242 14.1763Z" fill="white"/>
</g>
<path d="M10.4336 9.86987L32.8164 32.2527" stroke="white" stroke-width="2" stroke-linecap="round"/>
<defs>
<clipPath id="clip0">
<rect width="24.9106" height="25.3124" fill="white" transform="translate(9.56006 8.67163)"/>
</clipPath>
</defs>
</svg>
