<svg width="39" height="35" viewBox="0 0 39 35" fill="none" xmlns="http://www.w3.org/2000/svg">
<path d="M35.1187 4.02225C33.1466 1.88326 30.4405 0.7052 27.4984 0.7052C25.2992 0.7052 23.2852 1.40047 21.5122 2.77153C20.6175 3.46359 19.8069 4.3103 19.0921 5.29855C18.3777 4.31059 17.5667 3.46359 16.6718 2.77153C14.899 1.40047 12.885 0.7052 10.6858 0.7052C7.74375 0.7052 5.03739 1.88326 3.06524 4.02225C1.11663 6.13624 0.0432129 9.02427 0.0432129 12.1547C0.0432129 15.3767 1.24394 18.3261 3.82184 21.4368C6.12796 24.2193 9.44239 27.0439 13.2806 30.3148C14.5912 31.4318 16.0768 32.6979 17.6193 34.0466C18.0268 34.4035 18.5497 34.6 19.0921 34.6C19.6342 34.6 20.1574 34.4035 20.5643 34.0472C22.1069 32.6982 23.5933 31.4315 24.9045 30.3139C28.7421 27.0437 32.0566 24.2193 34.3627 21.4365C36.9406 18.3261 38.141 15.3767 38.141 12.1544C38.141 9.02427 37.0676 6.13624 35.1187 4.02225Z" fill="#6550DE"/>
</svg>
