<svg width="18" height="27" viewBox="0 0 18 27" fill="none" xmlns="http://www.w3.org/2000/svg">
<path d="M10.8542 20.5743V27H6.87183V20.5743C3.21873 19.6786 0.500057 16.3768 0.500057 12.4515V8.81427H2.093V12.4515C2.093 16.1845 5.13 19.2215 8.863 19.2215C12.596 19.2215 15.633 16.1845 15.633 12.4515V8.81427H17.226V12.4515C17.226 16.3768 14.5073 19.6786 10.8542 20.5743Z" fill="#404497"/>
<path d="M8.86298 17.6286C6.00832 17.6286 3.68591 15.3062 3.68591 12.4515V5.17706C3.68591 2.3224 6.00832 0 8.86298 0C11.7176 0 14.04 2.3224 14.04 5.17706V12.4515C14.04 15.3062 11.7176 17.6286 8.86298 17.6286Z" fill="#404497"/>
</svg>
