<svg width="115" height="115" viewBox="0 0 115 115" fill="none" xmlns="http://www.w3.org/2000/svg">
<circle cx="57.4999" cy="57.536" r="56.5414" fill="#F56748"/>
<path fill-rule="evenodd" clip-rule="evenodd" d="M58.4839 45.1946C59.2152 44.2782 60.5106 44.1622 61.3773 44.9353L74.5179 56.6585C74.9753 57.0666 75.2416 57.6654 75.2469 58.2982C75.2523 58.931 74.9963 59.5348 74.5458 59.9515L61.4052 72.1088C60.5519 72.8984 59.2547 72.8069 58.508 71.9046C57.7613 71.0023 57.8477 69.6308 58.7011 68.8412L67.7293 60.4887H42.8061C41.6722 60.4887 40.7529 59.5167 40.7529 58.3177C40.7529 57.1187 41.6722 56.1468 42.8061 56.1468H67.5764L58.7291 48.2538C57.8625 47.4806 57.7527 46.111 58.4839 45.1946Z" fill="white"/>
</svg>
