<svg width="62" height="64" viewBox="0 0 62 64" fill="none" xmlns="http://www.w3.org/2000/svg">
<path d="M37.6642 2.11749C36.9155 1.73709 36.0169 1.81311 35.343 2.3457L15.5748 17.0305H2.24631C0.973453 17.0305 0 18.0197 0 19.3132V44.7262C0 46.0198 0.973453 47.0088 2.24631 47.0088H15.5748L35.268 61.6936C35.6424 61.998 36.0917 62.1502 36.6158 62.1502C36.9902 62.1502 37.2897 62.0742 37.6641 61.922C38.4128 61.5416 38.8621 60.7806 38.8621 59.8676V4.17182C38.8623 3.33486 38.413 2.49789 37.6642 2.11749ZM14.0772 42.4436H4.49276V21.5957H14.0772V42.4436ZM34.3695 55.3783L18.57 43.5848V20.4544L34.3695 8.66088V55.3783Z" fill="white"/>
<path d="M47.3986 41.3785C51.2174 39.7046 53.4637 36.2045 53.4637 32.0199C53.4637 27.8352 51.2174 24.3351 47.3986 22.6612C46.2754 22.1286 44.9276 22.6612 44.4034 23.8026C43.8793 24.9439 44.4034 26.3134 45.5266 26.846C47.6981 27.8352 48.8962 29.7373 48.8962 32.096C48.8962 34.4547 47.6981 36.3569 45.5266 37.346C44.4034 37.8786 43.8793 39.2482 44.4034 40.3895C44.7778 41.2265 45.6015 41.7591 46.4251 41.7591C46.7996 41.6067 47.099 41.5307 47.3986 41.3785Z" fill="white"/>
<path d="M47.698 14.2151C46.5 13.9869 45.3019 14.7477 45.0772 16.0412C44.8526 17.2586 45.6013 18.4759 46.8743 18.7043C53.0893 19.9217 57.582 25.5521 57.582 32.0956C57.582 38.6391 53.0893 44.1934 46.8743 45.4869C45.6763 45.7151 44.8526 46.9326 45.0772 48.15C45.3018 49.2152 46.2004 49.9761 47.2487 49.9761C47.3985 49.9761 47.5482 49.9761 47.698 49.9001C56.0096 48.1501 62 40.6936 62 32.0196C62 23.3455 56.0096 15.813 47.698 14.2151Z" fill="white"/>
</svg>
