<svg width="23" height="21" viewBox="0 0 23 21" fill="none" xmlns="http://www.w3.org/2000/svg">
<path d="M14.6457 0.631454L5.40464 6.26851H0.323242V14.4483H5.40265L14.654 20.1554L14.6457 0.631454ZM4.88137 12.993H1.77856V7.72383H4.88137V12.993ZM6.33669 13.3145V7.40465L13.1915 3.22329L13.1975 17.547L6.33669 13.3145Z" fill="black"/>
<path d="M19.6478 4.63663L18.6641 5.70917C19.969 6.90609 20.7175 8.60418 20.7175 10.3679C20.7175 12.1224 19.9756 13.8144 18.682 15.0099L19.6698 16.0786C21.2605 14.6084 22.1728 12.5269 22.1728 10.3678C22.1728 8.19742 21.2524 6.10843 19.6478 4.63663Z" fill="black"/>
<path d="M17.4127 6.55293L16.5088 7.69351C17.3336 8.3472 17.8067 9.32196 17.8067 10.3679C17.8067 11.4052 17.3402 12.3749 16.5267 13.0283L17.4381 14.163C18.5972 13.2319 19.262 11.8487 19.262 10.368C19.2621 8.87481 18.5881 7.4843 17.4127 6.55293Z" fill="black"/>
</svg>
