<svg width="19" height="25" viewBox="0 0 19 25" fill="none" xmlns="http://www.w3.org/2000/svg">
<path d="M17.9854 5.29709L13.8587 1.17029C13.7034 1.01689 13.4942 0.930418 13.276 0.929306H0.895683C0.439836 0.929306 0.0703125 1.29883 0.0703125 1.75468V23.2139C0.0703125 23.6697 0.439836 24.0392 0.895683 24.0392H17.4028C17.8586 24.0392 18.2281 23.6697 18.2281 23.2139V5.88143C18.227 5.66236 18.1398 5.45252 17.9854 5.29709ZM14.1013 3.74708L15.4103 5.05611H14.1013V3.74708ZM16.5774 22.3885H1.721V2.58H12.4506V5.88143C12.4506 6.33728 12.8202 6.7068 13.276 6.7068H16.5774V22.3885H16.5774Z" fill="white"/>
<path d="M14.1017 8.35749H4.19744C3.74159 8.35749 3.37207 8.72701 3.37207 9.18286C3.37207 9.63871 3.74159 10.0082 4.19744 10.0082H14.1017C14.5575 10.0082 14.9271 9.63871 14.9271 9.18286C14.9271 8.72701 14.5575 8.35749 14.1017 8.35749Z" fill="white"/>
<path d="M14.1017 11.6589H4.19744C3.74159 11.6589 3.37207 12.0285 3.37207 12.4843C3.37207 12.9401 3.74164 13.3096 4.19744 13.3096H14.1017C14.5575 13.3096 14.9271 12.9401 14.9271 12.4842C14.9271 12.0284 14.5575 11.6589 14.1017 11.6589Z" fill="white"/>
<path d="M14.1017 14.9603H4.19744C3.74159 14.9603 3.37207 15.3298 3.37207 15.7857C3.37207 16.2415 3.74159 16.6111 4.19744 16.6111H14.1017C14.5575 16.6111 14.9271 16.2415 14.9271 15.7857C14.9271 15.3298 14.5575 14.9603 14.1017 14.9603Z" fill="white"/>
<path d="M14.1017 18.2617H4.19744C3.74159 18.2617 3.37207 18.6313 3.37207 19.0871C3.37207 19.543 3.74159 19.9125 4.19744 19.9125H14.1017C14.5575 19.9125 14.9271 19.543 14.9271 19.0871C14.9271 18.6313 14.5575 18.2617 14.1017 18.2617Z" fill="white"/>
</svg>
