<svg width="28" height="28" viewBox="0 0 28 28" fill="none" xmlns="http://www.w3.org/2000/svg">
<circle cx="13.9445" cy="13.882" r="13.5539" fill="#6550DE"/>
<g clip-path="url(#clip0)">
<path d="M15.7998 6.14061C15.6059 6.04211 15.3732 6.06179 15.1987 6.1997L10.0799 10.0022H6.62854C6.29894 10.0022 6.04688 10.2584 6.04688 10.5933V17.1738C6.04688 17.5088 6.29894 17.7649 6.62854 17.7649H10.0799L15.1793 21.5674C15.2762 21.6462 15.3926 21.6856 15.5283 21.6856C15.6252 21.6856 15.7028 21.6659 15.7997 21.6265C15.9936 21.528 16.1099 21.331 16.1099 21.0946V6.67256C16.11 6.45584 15.9936 6.23911 15.7998 6.14061ZM9.69207 16.5828H7.21024V11.1844H9.69207V16.5828ZM14.9466 19.9321L10.8554 16.8783V10.8888L14.9466 7.83497V19.9321Z" fill="white"/>
<path d="M18.3206 16.3068C19.3095 15.8734 19.8912 14.967 19.8912 13.8835C19.8912 12.7999 19.3095 11.8936 18.3206 11.4601C18.0298 11.3222 17.6808 11.4601 17.5451 11.7556C17.4093 12.0512 17.5451 12.4058 17.8359 12.5437C18.3982 12.7999 18.7084 13.2924 18.7084 13.9032C18.7084 14.5139 18.3982 15.0065 17.8359 15.2626C17.5451 15.4005 17.4093 15.7552 17.5451 16.0507C17.642 16.2674 17.8553 16.4054 18.0686 16.4054C18.1655 16.3659 18.2431 16.3462 18.3206 16.3068Z" fill="white"/>
<path d="M18.3979 9.27336C18.0877 9.21426 17.7774 9.41127 17.7192 9.74622C17.6611 10.0614 17.855 10.3767 18.1846 10.4358C19.7939 10.751 20.9573 12.209 20.9573 13.9034C20.9573 15.5978 19.7939 17.036 18.1846 17.371C17.8744 17.4301 17.6611 17.7453 17.7192 18.0605C17.7774 18.3364 18.0101 18.5334 18.2815 18.5334C18.3203 18.5334 18.3591 18.5334 18.3979 18.5137C20.5501 18.0606 22.1013 16.1298 22.1013 13.8837C22.1013 11.6376 20.5501 9.68712 18.3979 9.27336Z" fill="white"/>
</g>
<defs>
<clipPath id="clip0">
<rect width="16.0544" height="16.3134" fill="white" transform="translate(6.04688 5.72568)"/>
</clipPath>
</defs>
</svg>
