<svg width="22" height="23" viewBox="0 0 22 23" fill="none" xmlns="http://www.w3.org/2000/svg">
<path d="M2.72779 0.5H19.2601C20.6554 0.5 21.7905 1.63516 21.7905 3.03047V6.40442H20.1036V3.03047C20.1036 2.56536 19.7252 2.18698 19.2601 2.18698H2.72775C2.26265 2.18698 1.88426 2.56536 1.88426 3.03047V19.5628C1.88426 20.0279 2.26265 20.4063 2.72775 20.4063H19.2601C19.7252 20.4063 20.1036 20.0279 20.1036 19.5628V16.1888H21.7905V19.5628C21.7905 20.9581 20.6554 22.0932 19.2601 22.0932H2.72775C1.33245 22.0932 0.197287 20.9581 0.197287 19.5628V3.03047C0.19733 1.63516 1.33249 0.5 2.72779 0.5Z" fill="#6550de"/>
<path d="M6.43937 10.4531H18.5735L15.3683 7.24782L16.5612 6.05499L21.8027 11.2965L16.5612 16.5382L15.3683 15.3453L18.5735 12.1401H6.43937V10.4531Z" fill="#6550de"/>
</svg>
