<svg width="18" height="18" viewBox="0 0 18 18" fill="none" xmlns="http://www.w3.org/2000/svg">
<path d="M16.9902 0.621848C16.8611 0.507722 16.69 0.452917 16.5186 0.470699L5.59321 1.68462C5.28568 1.71865 5.05298 1.97856 5.05302 2.28793V13.1047C4.50291 12.7755 3.8732 12.6032 3.23212 12.6064C1.55871 12.6064 0.197266 13.6953 0.197266 15.0343C0.197266 16.3732 1.55871 17.4621 3.23208 17.4621C4.90546 17.4621 6.2669 16.3738 6.2669 15.0343V5.86909L15.9784 4.78747V11.889C15.4281 11.5604 14.7984 11.3887 14.1575 11.3925C12.4841 11.3925 11.1227 12.4814 11.1227 13.8203C11.1227 15.1593 12.4841 16.2482 14.1575 16.2482C15.8309 16.2482 17.1923 15.1599 17.1923 13.8203V1.07405C17.1923 0.90142 17.1188 0.73697 16.9902 0.621848Z" fill="white"/>
</svg>
