<svg width="265" height="170" viewBox="0 0 265 170" fill="none" xmlns="http://www.w3.org/2000/svg">
<rect width="265" height="170" fill="#F3F3F3"/>
<mask id="mask0" mask-type="alpha" maskUnits="userSpaceOnUse" x="75" y="33" width="111" height="96">
<path d="M141.351 127.913H141.466L141.779 127.958L161.534 128.044C162.711 128.05 163.661 127.068 163.668 125.862L163.754 104.892C164.33 104.098 165.386 103.715 166.332 104.214C168.088 105.132 170.075 105.659 172.18 105.659C182.128 105.672 189.475 94.1441 182.303 83.3357C181.942 82.7919 181.465 82.2993 180.938 81.9251C175.762 78.2402 170.468 78.205 166.387 80.3257C165.465 80.7991 164.455 80.4921 163.863 79.7724L163.946 58.9329C163.956 57.7621 163.054 56.8025 161.925 56.7514L161.24 56.6202L142.444 56.6074C141.088 56.3675 140.225 54.8417 140.896 53.5335C141.827 51.6942 142.365 49.6055 142.374 47.3856C142.406 39.8846 136.434 33.8071 129.112 33.9606C121.784 33.7655 115.787 39.8143 115.777 47.3184C115.783 49.5383 116.298 51.6303 117.236 53.4759C117.894 54.7842 117.021 56.3099 115.662 56.5434L96.8599 56.4571L96.1594 56.4507C95.3533 56.4859 94.5568 56.7993 94.5536 57.7877C94.5472 58.1876 94.5472 58.5202 94.5472 58.8849L94.512 80.4025L93.3349 80.169C92.8007 80.4025 92.1898 80.4441 91.6044 80.1338L91.2398 79.9739C90.6064 79.9803 89.9539 80.0251 89.279 80.121L89.1062 80.1434L88.9335 80.1146C88.1914 79.9771 87.5293 79.8587 86.8895 79.8587C80.86 79.8715 75.8668 84.5256 75.1119 90.5744C75.0448 91.0958 75 91.6203 75 92.1641C75 94.336 75.5822 96.6551 76.836 99.0029C77.1047 99.5115 77.3766 100.026 77.7125 100.538C78.0036 100.973 78.3842 101.367 78.8096 101.664C81.5797 103.625 84.2954 104.412 86.8256 104.418C87.5037 104.412 88.1658 104.358 88.8152 104.252L88.9879 104.217L89.1606 104.246C89.7108 104.335 90.1394 104.422 90.5361 104.469C90.8687 104.332 91.2078 104.194 91.5309 104.025C92.2154 103.67 92.9543 103.785 93.5236 104.169L94.4641 103.98L94.4289 125.824C94.4289 126.102 94.3809 126.377 94.3169 126.643C94.6624 127.369 95.3693 127.881 96.2073 127.881L115.969 127.894L116.273 127.852H116.391C118.074 127.858 119.011 125.949 118.102 124.481C115.495 120.242 115.16 114.392 118.825 108.685C119.622 107.719 120.546 106.881 121.573 106.178C124.065 104.687 126.569 104.012 128.933 103.986C131.294 104.025 133.792 104.716 136.274 106.213C137.295 106.92 138.219 107.764 139.012 108.737C142.649 114.459 142.275 120.309 139.646 124.538C138.744 126 139.668 127.913 141.351 127.913Z" fill="#616E7D"/>
</mask>
<g mask="url(#mask0)">
<rect width="312.569" height="104.239" transform="matrix(-1 0 0 1 272.794 28.881)" fill="#404497"/>
<rect width="34.6333" height="69.4364" transform="matrix(-1 0 0 1 99.1182 28.8802)" fill="#AB9FF1"/>
<rect width="69.6007" height="35.1256" transform="matrix(-1 0 0 1 203.665 28.8731)" fill="#6550DE"/>
<path fill-rule="evenodd" clip-rule="evenodd" d="M134.091 98.3166C134.045 117.546 118.443 133.12 99.2031 133.12C79.9633 133.12 64.361 117.546 64.3152 98.3167L134.091 98.3166Z" fill="#2C9AFF"/>
<path d="M133.921 63.7682C133.921 44.5939 118.377 29.05 99.203 29.05C80.0286 29.05 64.4848 44.5939 64.4848 63.7682C64.4848 82.9425 80.0286 98.4864 99.203 98.4864C118.377 98.4864 133.921 82.9425 133.921 63.7682Z" fill="#F56748"/>
<path d="M168.724 46.5364C168.724 36.879 176.553 29.05 186.211 29.05C195.868 29.05 203.697 36.879 203.697 46.5364C203.697 56.1939 195.868 64.0229 186.211 64.0229H168.724V46.5364Z" fill="#FFCFCF"/>
<path d="M99.6274 115.633C99.6274 105.976 107.456 98.1469 117.114 98.1469C126.771 98.1469 134.6 105.976 134.6 115.633C134.6 125.291 126.771 133.12 117.114 133.12H99.6274V115.633Z" fill="#AB9FF1"/>
<path fill-rule="evenodd" clip-rule="evenodd" d="M81.9713 133.289C72.3138 133.289 64.4849 125.46 64.4849 115.803C64.4849 106.161 72.2891 98.3413 81.9255 98.3167L81.9255 115.757L99.4576 115.757C99.4576 115.773 99.4577 115.788 99.4577 115.803C99.4577 125.46 91.6287 133.289 81.9713 133.289Z" fill="#6550DE"/>
<path fill-rule="evenodd" clip-rule="evenodd" d="M203.528 64.0228C203.528 83.244 187.946 98.8259 168.724 98.8259C149.503 98.8259 133.921 83.2441 133.921 64.0228L133.921 64.0228L203.528 64.0228Z" fill="#E3DEFF"/>
<path fill-rule="evenodd" clip-rule="evenodd" d="M151.323 29.2198C160.933 29.2198 168.724 37.0107 168.724 46.6213C168.724 56.2168 160.958 63.9984 151.368 64.0228V46.6668H133.921C133.921 46.6516 133.921 46.6365 133.921 46.6213C133.921 37.0107 141.712 29.2198 151.323 29.2198Z" fill="#2C9AFF"/>
<path fill-rule="evenodd" clip-rule="evenodd" d="M168.639 133.459C149.465 133.459 133.751 117.915 133.751 98.7409C133.751 79.5969 149.415 64.0718 168.548 64.0228L168.548 98.6504L203.527 98.6504C203.527 98.6805 203.527 98.7107 203.527 98.7409C203.527 117.915 187.814 133.459 168.639 133.459Z" fill="#FEC246"/>
</g>
</svg>
