<?xml version="1.0" encoding="iso-8859-1"?>
<!-- Generator: Adobe Illustrator 19.0.0, SVG Export Plug-In . SVG Version: 6.00 Build 0)  -->
<svg version="1.1" id="Capa_1" xmlns="http://www.w3.org/2000/svg" xmlns:xlink="http://www.w3.org/1999/xlink" x="0px" y="0px"
	 viewBox="0 0 512 512" style="enable-background:new 0 0 512 512;" xml:space="preserve">
<g>
	<g>
		<path fill="white" d="M74.594,78.631C83.961,70.378,90,58.438,90,45C90,20.186,69.814,0,45,0S0,20.186,0,45c0,24.814,20.186,45,45,45
			c0.608,0,1.172-0.156,1.772-0.179l15.89,39.706c7.906-3.62,16.139-6.595,24.935-8.027c1.355-0.225,2.706-0.055,4.065-0.227
			L74.594,78.631z"/>
	</g>
</g>
<g>
	<g>
		<g>
			<path fill="white" d="M508.97,472.973c0.007,0.03,0.012,0.046,0.02,0.079C507.735,467.852,508.725,471.961,508.97,472.973z"/>
			<path fill="white" d="M508.99,473.052c-0.004-0.016-0.009-0.032-0.013-0.049C509.026,473.203,509.04,473.262,508.99,473.052z"/>
			<path fill="white" d="M508.97,472.973c-0.029-0.119-0.054-0.214-0.074-0.283c0.026,0.105,0.056,0.208,0.081,0.313
				C508.975,472.993,508.973,472.984,508.97,472.973z"/>
			<path fill="white" d="M508.896,472.69c-5.229-21.378-16.145-40.308-32.737-54.898C448.279,438.73,413.541,451,377,451
				c-46.501,0-88.898-23.701-113.2-60c-0.3-0.3-0.3-0.601-0.601-0.901c-1.802,0.601-3.6,0.901-5.698,0.901H226
				c-24.902,0-45-20.101-45-45V226c0-12.464-3.413-24.467-9.192-35.24C134.431,120.889,31,152.918,31,229.3V376
				c0,74.399,60.601,136,135,136h331c8.291,0,15-6.709,15-15C512,492.287,508.263,470.51,508.896,472.69z M106,241
				c-8.284,0-15-6.716-15-15c0-8.286,6.716-15,15-15s15,6.714,15,15C121,234.284,114.284,241,106,241z"/>
		</g>
	</g>
</g>
<g>
	<g>
		<path fill="white" d="M453.055,137.772c-37.969-34.512-88.1-50.83-139.691-45.923c-50.065,4.77-93.845,31.924-123.38,71.107
			C203.471,180.998,211,202.987,211,226v120c0,7.833,5.901,15,15,15h22.8c-0.3-0.601-0.601-1.5-0.901-2.1
			C243.402,345.399,241,331,241,316v-24.901c0-57.9,44.7-107.1,99.302-110.099c29.7-1.201,57.997,8.699,78.996,28.799
			C440.3,229.9,452,256.899,452,286v15c0,32.999-27.001,60-60,60c-32.999,0-61-27.001-61-60v-15c0-8.401,6.599-15,15-15
			s15,6.599,15,15v15c0,16.5,14.499,30,31,30c16.501,0,30-13.5,30-30v-15c0-20.7-8.401-40.201-23.401-54.3
			c-15-14.401-35.797-21.601-56.499-20.7c-39.298,2.1-71.1,38.099-71.1,80.099V316c0,27.191,10.759,52.221,27.297,70.199
			C317.501,407.5,346.099,421,377,421c26.1,0,50.698-7.5,72.001-21.301c0,0,0,0,0.297,0C486.559,376.786,512,335.057,512,286v-15
			C512,220.39,490.525,171.83,453.055,137.772z"/>
	</g>
</g>
<g>
	<g>
		<path fill="white" d="M166,0c-24.814,0-45,20.186-45,45c0,13.438,6.042,25.38,15.41,33.633l-17.15,42.843
			c10.06,1.296,19.794,3.981,29.074,8.055l15.894-39.71C164.828,89.844,165.392,90,166,90c24.814,0,45-20.186,45-45
			C211,20.186,190.814,0,166,0z"/>
	</g>
</g>
<g>
</g>
<g>
</g>
<g>
</g>
<g>
</g>
<g>
</g>
<g>
</g>
<g>
</g>
<g>
</g>
<g>
</g>
<g>
</g>
<g>
</g>
<g>
</g>
<g>
</g>
<g>
</g>
<g>
</g>
</svg>
