<svg width="27" height="26" viewBox="0 0 27 26" fill="none" xmlns="http://www.w3.org/2000/svg">
<path d="M23.1302 0.797852H3.93723C1.93053 0.797852 0.297852 2.4302 0.297852 4.43723V16.183C0.297852 18.1855 1.92342 19.8152 3.92431 19.8223V25.1524L11.5842 19.8223H23.1302C25.1369 19.8223 26.7696 18.1897 26.7696 16.183V4.43723C26.7696 2.4302 25.1369 0.797852 23.1302 0.797852ZM25.2185 16.183C25.2185 17.3343 24.2818 18.2713 23.1302 18.2713H11.0976L5.47539 22.1835V18.2713H3.93723C2.78572 18.2713 1.84893 17.3343 1.84893 16.183V4.43723C1.84893 3.28556 2.78572 2.34893 3.93723 2.34893H23.1302C24.2818 2.34893 25.2185 3.28556 25.2185 4.43723V16.183Z" fill="white"/>
</svg>
