<svg width="266" height="170" viewBox="0 0 266 170" fill="none" xmlns="http://www.w3.org/2000/svg">
<rect x="0.5" width="265" height="170" fill="#FFCFCF"/>
<circle cx="133" cy="85" r="26.7141" fill="#6550DE"/>
<circle cx="133" cy="85" r="26.7141" fill="#6550DE"/>
<circle cx="133" cy="85" r="33.0158" stroke="white" stroke-width="0.715254"/>
<circle cx="133" cy="85" r="42.1727" stroke="white" stroke-width="2"/>
<g clip-path="url(#clip0)">
<path d="M134.814 77.4297C134.624 77.3333 134.397 77.3526 134.226 77.4874L129.221 81.2058H125.846C125.523 81.2058 125.277 81.4563 125.277 81.7839V88.2188C125.277 88.5463 125.523 88.7968 125.846 88.7968H129.221L134.207 92.5152C134.302 92.5922 134.416 92.6308 134.549 92.6308C134.643 92.6308 134.719 92.6115 134.814 92.573C135.004 92.4767 135.117 92.284 135.117 92.0528V77.9498C135.117 77.7379 135.004 77.526 134.814 77.4297ZM128.841 87.6408H126.414V82.3618H128.841V87.6408ZM133.98 90.916L129.979 87.9297V82.0728L133.98 79.0865V90.916Z" fill="white"/>
<path d="M137.279 87.3711C138.246 86.9472 138.815 86.061 138.815 85.0014C138.815 83.9417 138.246 83.0555 137.279 82.6316C136.994 82.4968 136.653 82.6316 136.52 82.9206C136.388 83.2096 136.52 83.5564 136.805 83.6913C137.355 83.9417 137.658 84.4234 137.658 85.0206C137.658 85.6179 137.355 86.0996 136.805 86.35C136.52 86.4849 136.388 86.8317 136.52 87.1207C136.615 87.3326 136.824 87.4675 137.032 87.4675C137.127 87.4289 137.203 87.4096 137.279 87.3711Z" fill="white"/>
<path d="M137.355 80.4929C137.051 80.4352 136.748 80.6278 136.691 80.9553C136.634 81.2636 136.824 81.5718 137.146 81.6297C138.72 81.9379 139.858 83.3636 139.858 85.0205C139.858 86.6775 138.72 88.0839 137.146 88.4114C136.843 88.4692 136.634 88.7775 136.691 89.0857C136.748 89.3555 136.976 89.5481 137.241 89.5481C137.279 89.5481 137.317 89.5481 137.355 89.5289C139.459 89.0858 140.976 87.1977 140.976 85.0013C140.976 82.8049 139.459 80.8976 137.355 80.4929Z" fill="white"/>
</g>
<defs>
<clipPath id="clip0">
<rect width="15.6993" height="15.9525" fill="white" transform="translate(125.277 77.0238)"/>
</clipPath>
</defs>
</svg>
