<svg width="266" height="170" viewBox="0 0 266 170" fill="none" xmlns="http://www.w3.org/2000/svg">
<rect x="0.344482" width="265" height="170" fill="#FFCFCF"/>
<circle cx="80.9842" cy="101.569" r="20.8516" fill="#6550DE"/>
<circle cx="130.845" cy="82.5694" r="20.8516" fill="#F56748"/>
<rect x="120.331" y="79.0897" width="14.1242" height="3.16822" rx="1.58411" transform="rotate(45 120.331 79.0897)" fill="white"/>
<rect x="126.103" y="89.077" width="21.5747" height="3.16822" rx="1.58411" transform="rotate(-45 126.103 89.077)" fill="white"/>
<circle cx="180.705" cy="101.569" r="20.8516" fill="#6550DE"/>
<path fill-rule="evenodd" clip-rule="evenodd" d="M141.527 40.5944C142.123 41.0703 142.199 41.9134 141.696 42.4775L134.066 51.0302C133.8 51.3279 133.41 51.5012 132.998 51.5047C132.587 51.5082 132.194 51.3415 131.922 51.0484L124.01 42.4957C123.496 41.9403 123.555 41.0961 124.143 40.61C124.73 40.124 125.623 40.1803 126.136 40.7358L131.573 46.6118L131.573 30.3904C131.573 29.6524 132.205 29.0541 132.986 29.0541C133.766 29.0541 134.399 29.6524 134.399 30.3904L134.399 46.5123L139.536 40.754C140.039 40.1899 140.931 40.1185 141.527 40.5944Z" fill="white"/>
</svg>
