<svg width="265" height="170" viewBox="0 0 265 170" fill="none" xmlns="http://www.w3.org/2000/svg">
<rect width="265" height="170" fill="#FEC246"/>
<circle cx="132.5" cy="85" r="26.7889" fill="#6550DE"/>
<path fill-rule="evenodd" clip-rule="evenodd" d="M141.183 140.54C141.779 141.016 141.854 141.859 141.351 142.423L133.721 150.976C133.456 151.274 133.066 151.447 132.654 151.451C132.242 151.454 131.849 151.287 131.578 150.994L123.665 142.442C123.151 141.886 123.211 141.042 123.798 140.556C124.385 140.07 125.278 140.126 125.792 140.682L131.228 146.558L131.228 130.336C131.228 129.598 131.861 129 132.641 129C133.422 129 134.054 129.598 134.054 130.336L134.054 146.458L139.191 140.7C139.695 140.136 140.586 140.064 141.183 140.54Z" fill="white"/>
<path fill-rule="evenodd" clip-rule="evenodd" d="M141.183 29.8642C141.779 30.3402 141.854 31.1833 141.351 31.7474L133.721 40.3C133.456 40.5977 133.066 40.771 132.654 40.7745C132.242 40.778 131.849 40.6114 131.578 40.3182L123.665 31.7656C123.151 31.2101 123.211 30.3659 123.798 29.8799C124.385 29.3939 125.278 29.4502 125.792 30.0056L131.228 35.8816L131.228 19.6603C131.228 18.9222 131.861 18.3239 132.641 18.3239C133.422 18.3239 134.054 18.9222 134.054 19.6603L134.054 35.7821L139.191 30.0238C139.695 29.4597 140.586 29.3883 141.183 29.8642Z" fill="white"/>
</svg>
