<svg width="266" height="170" viewBox="0 0 266 170" fill="none" xmlns="http://www.w3.org/2000/svg">
<rect x="0.5" width="265" height="170" fill="#F56748"/>
<circle cx="133" cy="85" r="26.7889" fill="#6550DE"/>
<path d="M134.535 90.4534V95.4068H131.465V90.4534C128.649 89.7629 126.553 87.2177 126.553 84.1917V81.3879H127.781V84.1917C127.781 87.0694 130.122 89.4106 133 89.4106C135.878 89.4106 138.219 87.0694 138.219 84.1917V81.3879H139.447V84.1917C139.447 87.2177 137.351 89.7629 134.535 90.4534Z" fill="white"/>
<path d="M133 88.1826C130.8 88.1826 129.009 86.3923 129.009 84.1917V78.584C129.009 76.3835 130.8 74.5932 133 74.5932C135.201 74.5932 136.991 76.3835 136.991 78.584V84.1917C136.991 86.3923 135.201 88.1826 133 88.1826Z" fill="white"/>
<path d="M106.904 58.8895C100.219 65.5705 96.0845 74.8024 96.0845 85C96.0845 95.1976 100.219 104.429 106.904 111.11M159.097 58.8895C165.781 65.5705 169.916 74.8024 169.916 85C169.916 95.1976 165.781 104.429 159.097 111.11" stroke="white"/>
<path d="M100.345 52.3306C91.9819 60.6901 86.8088 72.2409 86.8088 85C86.8088 97.759 91.9819 109.31 100.345 117.669M165.655 52.3306C174.019 60.6901 179.192 72.2409 179.192 85C179.192 97.759 174.019 109.31 165.655 117.669" stroke="white" stroke-width="1.5"/>
<path d="M94.9744 47.1792C85.3292 56.8764 79.3684 70.2421 79.3684 85C79.3684 99.7579 85.3292 113.124 94.9744 122.821M171.026 47.1792C180.672 56.8764 186.632 70.2421 186.632 85C186.632 99.7579 180.672 113.124 171.026 122.821" stroke="white" stroke-width="2"/>
</svg>
